<svg viewBox="0 0 381 458" xmlns="http://www.w3.org/2000/svg" xml:space="preserve" style="fill-rule:evenodd;clip-rule:evenodd;stroke-linejoin:round;stroke-miterlimit:2"><path d="m539.39 159.81-19.84-28.688c-.09-.125-.219-.191-.32-.301a3.63 3.63 0 0 0-.582-.558 3.861 3.861 0 0 0-.735-.461c-.117-.063-.207-.168-.34-.219l-60.266-22.785c-.011 0-.011-.004-.023-.004l-.023-.012c-.024-.004-.036 0-.055-.011a4.5 4.5 0 0 0-1.059-.246c-.129-.012-.242.015-.371.015-.117 0-.23.004-.359.016a4.115 4.115 0 0 0-1.289.308c-.035.016-.067.024-.114.039-.461.211-.863.5-1.226.864-.055.062-.102.132-.153.203-.164.183-.339.359-.468.582l-46.703 77.902-56.922-111.47c-.024-.051-.067-.086-.094-.129-.066-.117-.145-.207-.223-.32a4.192 4.192 0 0 0-1.074-1.086 4.356 4.356 0 0 0-1.164-.559c-.055-.016-.094-.055-.145-.074l-107.39-27.215a4.196 4.196 0 0 0-3.839.945 4.168 4.168 0 0 0-1.348 3.711l4.406 31.039-70.672-15.172a4.231 4.231 0 0 0-4.055 1.348 4.212 4.212 0 0 0-.773 4.199l46.312 126.52a4.152 4.152 0 0 0 1.934 2.238l82.102 44.852 66.379 109.02-129.7 107.69a4.181 4.181 0 0 0-1.063 5.117 4.21 4.21 0 0 0 4.746 2.196l49.926-12.086-25.586 34.195a4.204 4.204 0 0 0 3.36 6.715c.687 0 1.379-.168 2.011-.516l176.49-96.359c.012 0 .012-.004.012-.004l18.109-9.285 7.379 13.137a4.196 4.196 0 0 0 3.664 2.144c.055 0 .117 0 .184-.004a4.195 4.195 0 0 0 3.64-2.476l12.48-27.859c0-.004 0-.004.012-.012l40.828-91.422c.055-.117.043-.262.09-.387.078-.222.14-.441.183-.675.012-.075.067-.118.067-.192.012-.043-.024-.086-.012-.125 0-.078.035-.152.035-.23 0-.125-.043-.246-.054-.364a3.607 3.607 0 0 0-.141-.812c-.035-.141-.012-.293-.066-.43l-32.301-84.941 16.23-37.703 25.43 6.664c.359.094.71.133 1.07.133a4.192 4.192 0 0 0 3.433-1.785 4.202 4.202 0 0 0 .028-4.809l.008-.006zm-61.891 212.31-20.621 10.574c-.012.012-.035.012-.043.016-.012.004-.023.015-.035.023l-5.578 2.867 50.883-68.578-24.606 55.098zM345.329 87.15l47.723 93.445-15.512-11.809-45.59-47.145 13.379-34.491zm33.152 92.914 134.96 102.76-144.47 65.684 9.51-168.444zm-205.8-104.12 128.18 27.512-9.078 131.86-75.945-41.473-43.157-117.899zm102.83 405.05 89.992-120.27 63.09 36.695-153.082 83.575zm187.52-363.05 47.473 17.949-21.582 50.141-25.891-68.09z" style="fill-rule:nonzero" transform="translate(-161 -44)"/><path d="m275.511 480.994 89.992-120.27 63.09 36.695-153.082 83.575zM477.499 372.12l-20.621 10.574c-.012.012-.035.012-.043.016-.012.004-.023.015-.035.023l-5.578 2.867 50.883-68.578-24.606 55.098zM378.481 180.064l134.96 102.76-144.47 65.684 9.51-168.444zM172.681 75.944l128.18 27.512-9.078 131.86-75.945-41.473-43.157-117.899zM463.031 117.944l47.473 17.949-21.582 50.141-25.891-68.09zM345.329 87.15l47.723 93.445-15.512-11.809-45.59-47.145 13.379-34.491z" style="fill:#fff" transform="translate(-161 -44)"/></svg>