<svg viewBox="0 0 514 418" xmlns="http://www.w3.org/2000/svg" xml:space="preserve" style="fill-rule:evenodd;clip-rule:evenodd;stroke-linejoin:round;stroke-miterlimit:2"><path d="M605.06 384.59a4.159 4.159 0 0 0-2.078-2.453l-62.496-32.078-18.441-119.27c-.012-.09-.055-.164-.078-.254-.035-.133-.078-.254-.117-.379a3.954 3.954 0 0 0-.688-1.305c-.035-.05-.043-.117-.09-.164l-89.93-104.16c-.117-.144-.285-.246-.426-.371-.078-.062-.113-.152-.183-.211l-77.551-59.68a4.126 4.126 0 0 0-.688-.449l-.007-.008c-.118-.054-.235-.113-.352-.156h-.004a4.171 4.171 0 0 0-2.945-.062h-.004c0-.004-.035.003-.055.015l-52.664 19.312c-.004 0-.004.004-.012.004a4.265 4.265 0 0 0-1.39.852c-.223.203-.359.48-.539.726-.141.207-.336.371-.442.61l-14.043 30.727a4.207 4.207 0 0 0 .934 4.793 4.222 4.222 0 0 0 4.852.667l17.406-9.16 18.219 46.883-225.04 135.09a4.197 4.197 0 0 0-1.926 4.582 4.204 4.204 0 0 0 3.797 3.203l70.973 4.891-49.883 48.117a4.192 4.192 0 0 0-.829 4.918 4.198 4.198 0 0 0 3.747 2.309c.23 0 .464-.024.707-.063l204.34-34.691c.269-.043.492-.172.734-.262.125-.05.258-.027.375-.089l74.301-35.621 56.688 25.109-7.391 148.73a4.171 4.171 0 0 0 1.903 3.722 4.21 4.21 0 0 0 4.168.242l69.859-34.844 24.031 41.934c.043.086.14.118.183.192a4.09 4.09 0 0 0 1.149 1.14c.113.079.183.18.308.246.024.016.043.043.078.063a4.07 4.07 0 0 0 1.914.469h.012c.461 0 .93-.078 1.391-.235.183-.066.34-.195.515-.293.141-.074.262-.129.379-.218.582-.379 1.059-.868 1.379-1.469.024-.027.043-.039.067-.067l45.621-88.324a4.138 4.138 0 0 0 .261-3.203l.001-.007zm-274.43-68.039v-152.71l96-31.703 84.504 97.883-180.504 86.53zm13.688-242.32-18.711 72.867-22.449-57.77 41.16-15.097zm-232.33 220.19 184.99-111.05-119.78 115.54-65.21-4.49zm421.19 132.46c-.055-.102-.113-.203-.164-.297l-64.512-112.61 46.91-71.148 32.418 209.63-14.652-25.575z" style="fill-rule:nonzero" transform="translate(-93 -62)"/><path d="M533.178 426.881c-.055-.102-.113-.203-.164-.297l-64.512-112.61 46.91-71.148 32.418 209.63-14.652-25.575zM330.63 316.551v-152.71l96-31.703 84.504 97.883-180.504 86.53zM111.988 294.421l184.99-111.05-119.78 115.54-65.21-4.49zM344.318 74.231l-18.711 72.867-22.449-57.77 41.16-15.097z" style="fill:#fff" transform="translate(-93 -62)"/></svg>