<svg viewBox="0 0 509 365" xmlns="http://www.w3.org/2000/svg" xml:space="preserve" style="fill-rule:evenodd;clip-rule:evenodd;stroke-linejoin:round;stroke-miterlimit:2"><path d="m606.12 246.54-7.297-34.926c-.023-.074-.066-.125-.09-.191-.011-.063 0-.118-.011-.172-.055-.164-.172-.274-.243-.426-.164-.348-.32-.676-.558-.969-.141-.172-.309-.308-.469-.461a4.273 4.273 0 0 0-.875-.605c-.113-.055-.184-.156-.309-.207l-61.68-24.91-.089-.035c-.645-.262-1.301-.309-1.95-.247-.164.012-.297.063-.449.094a4.163 4.163 0 0 0-1.488.629c-.09.063-.207.055-.297.117l-70.559 55.688-29.988-140.98a4.217 4.217 0 0 0-1.902-2.695 4.164 4.164 0 0 0-3.27-.492l-37.133 9.66-7.254-13.836c-.801-1.539-2.515-2.402-4.199-2.223l-269.96 31.395a4.192 4.192 0 0 0-3.684 3.711 4.198 4.198 0 0 0 2.79 4.426l81.879 28.609-28.203 7.348c-.09.023-.145.09-.231.117-.207.066-.375.18-.578.281-.297.145-.59.293-.836.5-.172.145-.301.336-.441.504-.196.231-.391.442-.539.707-.118.219-.172.465-.254.711-.09.274-.184.543-.219.836-.004.074-.043.125-.043.191-.016.231.074.43.094.649.023.211-.016.422.039.633.015.074.066.117.086.191.062.184.152.348.234.527.141.297.297.571.492.817.117.144.246.273.379.402.235.223.481.41.762.578.156.102.312.184.488.262.34.141.688.219 1.059.273.117.016.211.086.34.09l85.082 4.559 20.496 7.164-10.191 174.36-152.7 39.266c-.246.07-.43.219-.657.32-.254.117-.519.196-.746.36-.246.179-.426.414-.621.636-.164.18-.347.336-.48.543-.172.286-.262.606-.364.926-.062.184-.179.348-.211.543-.003.024 0 .039 0 .063-.042.281.004.566.016.843.016.282-.023.559.043.817.004.023-.004.039.004.062.117.489.34.93.598 1.321.054.078.129.125.183.191.254.332.543.621.879.855.133.094.293.153.442.235.308.164.621.297.964.379.09.023.157.086.254.101l81.66 14.656-30.613 23.496a4.207 4.207 0 0 0-1.281 5.039 4.209 4.209 0 0 0 3.836 2.489c.258 0 .516-.024.773-.075l98.875-18.391 228.91-42.648a4.208 4.208 0 0 0 2.832-1.972l58.309-97.371 33.992-50.164 20.277 9.469c.571.261 1.172.39 1.782.39a4.2 4.2 0 0 0 2.605-.906 4.157 4.157 0 0 0 1.508-4.129v.002zm-60.613 31.035-7.746-83.574 50.551 20.418-42.805 63.156zm-12.621 12.039-252.88 123.34 177.77-160.52 75.11 37.18zm-158.76-191.59 74.301 141.9-323.27-112.95 248.969-28.95zm-122.91 326.77-128.12-22.992 131.44-33.809-3.32 56.801z" style="fill-rule:nonzero" transform="translate(-100 -89)"/><path d="m251.216 424.794-128.12-22.992 131.44-33.809-3.32 56.801zM532.886 289.614l-252.88 123.34 177.77-160.52 75.11 37.18zM545.507 277.575l-7.746-83.574 50.551 20.418-42.805 63.156zM374.126 98.024l74.301 141.9-323.27-112.95 248.969-28.95z" style="fill:#fff" transform="translate(-100 -89)"/></svg>