<svg viewBox="0 0 499 462" xmlns="http://www.w3.org/2000/svg" xml:space="preserve" style="fill-rule:evenodd;clip-rule:evenodd;stroke-linejoin:round;stroke-miterlimit:2"><path d="M594.9 109.98 371.21 78.703a4.237 4.237 0 0 0-2.418.379l-18.766 8.992-42.379-42.129c-.074-.066-.156-.094-.234-.152-.246-.219-.516-.379-.813-.539a3.078 3.078 0 0 0-.57-.262c-.285-.102-.578-.141-.879-.172a3.922 3.922 0 0 0-.774-.027c-.117.011-.234-.035-.351-.012L237.46 55.375a4.195 4.195 0 0 0-3.527 3.824 4.203 4.203 0 0 0 2.902 4.317l34.945 11.285-53.688 51.703-31.547-25.699c-.125-.106-.281-.129-.41-.219a4.156 4.156 0 0 0-.684-.359 4.463 4.463 0 0 0-.941-.247c-.145-.023-.274-.113-.426-.117l-47.383-2.179c-1.242-.129-2.359.398-3.168 1.261-.016.012-.039.016-.055.035l-26.383 27.551c-.117.118-.152.27-.254.391-.179.242-.347.477-.468.75a4.257 4.257 0 0 0-.258.789c-.043.164-.133.301-.156.477-.012.101.027.191.023.293-.012.293.027.566.074.843.043.262.078.52.164.766.09.242.219.461.352.684.144.253.293.492.488.707.074.078.102.168.168.242.125.117.281.164.414.262.231.171.453.332.723.453.258.117.515.195.789.261.168.039.308.133.48.157l37.57 4.484 57.508 136.53c.184.477.461.906.797 1.281l.016.016c0 .004.004.004.004.004l.004.004v.004c.023 0 .011.003.011.003 0 .004.004.004.004.012.004 0 .004.004.012.004v.004s.004 0 .004.004c0 0 .004 0 .004.004l.004.004a4.464 4.464 0 0 0 .531.468l204.81 156.29 18.09 64.438a4.184 4.184 0 0 0 3.129 2.957c.308.075.609.106.918.106a4.19 4.19 0 0 0 3.168-1.445l69.035-79.418a4.209 4.209 0 0 0-.117-5.641l-11.867-12.582 25.844-31.496a4.251 4.251 0 0 0 .839-3.625 4.233 4.233 0 0 0-2.375-2.871l-104.33-46.867-35.688-37.852 92.148-118.21 125.93-42.09a4.19 4.19 0 0 0 2.856-4.363c-.172-1.93-1.668-3.496-3.594-3.774l.001-.009zM367.79 271.93l-188.96-92.434 59.625-28.59a.08.08 0 0 0 .027-.016l112.28-53.832.036-.015 15.68-7.52 1.312 182.407zM304.638 54.81l37.352 37.133-104.71 50.211-12.633-10.293 79.991-77.051zm-136.93 110.32-24.742-58.742 35.875 1.645-11.133 57.097zm53.922 112.6 147.2 5.047 38.316 136.49L221.63 277.73zm287.5 90.824-21.668 26.414-59.129-62.707 80.797 36.293zm-41.172-216.61-82.07-62.695 190.15 26.582-108.08 36.113z" style="fill-rule:nonzero" transform="translate(-103 -43)"/><path d="m221.63 277.73 147.2 5.047 38.316 136.49L221.63 277.73zM509.13 368.554l-21.668 26.414-59.129-62.707 80.797 36.293zM367.79 271.93l-188.96-92.434 59.625-28.59a.08.08 0 0 0 .027-.016l112.28-53.832.036-.015 15.68-7.52 1.312 182.407zM167.708 165.13l-24.742-58.742 35.875 1.645-11.133 57.097zM467.958 151.944l-82.07-62.695 190.15 26.582-108.08 36.113zM304.638 54.81l37.352 37.133-104.71 50.211-12.633-10.293 79.991-77.051z" style="fill:#fff" transform="translate(-103 -43)"/></svg>